<svg style="background:#fff" xmlns="http://www.w3.org/2000/svg" xmlns:xlink="http://www.w3.org/1999/xlink" xml:lang="en" height="425.32pt" width="426.9440000000001pt" viewBox="-4.6 -416.4 426.9440000000001 425.32"><circle cx="180" cy="-270" r="18" style="stroke:black;fill:none;stroke-width:1.6;stroke-dasharray:-;" /><circle cx="360" cy="-90" r="18" style="stroke:black;fill:none;stroke-width:1.6;stroke-dasharray:-;" /><path d="M 0.0,-360.0 L 0,-180 L 0,-0" style="stroke:black;fill:none;stroke-width:1.6;stroke-dasharray:-;stroke-linecap:round;stroke-linejoin:round;" /><path d="M 0.0,-0.0 L 180,-0 L 360,-0" style="stroke:black;fill:none;stroke-width:1.6;stroke-dasharray:-;stroke-linecap:round;stroke-linejoin:round;" /><path d="M 360.0,-360.0 L 360,-270 L 360,-180" style="stroke:black;fill:none;stroke-width:1.6;stroke-dasharray:-;stroke-linecap:round;stroke-linejoin:round;" /><path d="M 0.0,-360.0 L 72,-360 L 75,-369 L 81,-351 L 87,-369 L 93,-351 L 99,-369 L 105,-351 L 108,-360 L 180,-360" style="stroke:black;fill:none;stroke-width:1.6;stroke-dasharray:-;stroke-linecap:round;stroke-linejoin:round;" /><path d="M 180.0,-360.0 L 252,-360 L 255,-369 L 261,-351 L 267,-369 L 273,-351 L 279,-369 L 285,-351 L 288,-360 L 360,-360" style="stroke:black;fill:none;stroke-width:1.6;stroke-dasharray:-;stroke-linecap:round;stroke-linejoin:round;" /><path d="M 180.0,-180.0 L 180,-252 L 180,-252 M 180,-288 L 180,-288 L 180,-360" style="stroke:black;fill:none;stroke-width:1.6;stroke-dasharray:-;stroke-linecap:round;stroke-linejoin:round;" /><path d="M 180.0,-261.0 L 180,-270" style="stroke:black;fill:none;stroke-width:1.6;stroke-dasharray:-;stroke-linecap:round;stroke-linejoin:round;" /><path d="M 180 -277 L 182.7 -270 L 177.3 -270 Z" style="stroke:black;fill:black;stroke-linecap:butt;stroke-linejoin:miter;" /><path d="M 180.0,-0.0 L 180,-72 L 171,-75 L 189,-81 L 171,-87 L 189,-93 L 171,-99 L 189,-105 L 180,-108 L 180,-180" style="stroke:black;fill:none;stroke-width:1.6;stroke-dasharray:-;stroke-linecap:round;stroke-linejoin:round;" /><path d="M 180.0,-180.0 L 252,-180 L 255,-189 L 261,-171 L 267,-189 L 273,-171 L 279,-189 L 285,-171 L 288,-180 L 360,-180" style="stroke:black;fill:none;stroke-width:1.6;stroke-dasharray:-;stroke-linecap:round;stroke-linejoin:round;" /><path d="M 360.0,-0.0 L 360,-72 L 360,-72 M 360,-108 L 360,-108 L 360,-180" style="stroke:black;fill:none;stroke-width:1.6;stroke-dasharray:-;stroke-linecap:round;stroke-linejoin:round;" /><path d="M 363.59999999999997,-81.0 L 356.4,-81" style="stroke:black;fill:none;stroke-width:1.6;stroke-dasharray:-;stroke-linecap:round;stroke-linejoin:round;" /><path d="M 360.0,-95.39999999999999 L 360,-102.6" style="stroke:black;fill:none;stroke-width:1.6;stroke-dasharray:-;stroke-linecap:round;stroke-linejoin:round;" /><path d="M 363.59999999999997,-99.0 L 356.4,-99" style="stroke:black;fill:none;stroke-width:1.6;stroke-dasharray:-;stroke-linecap:round;stroke-linejoin:round;" /><text x="93.60000000000001" y="-411.79999999999995" dominant-baseline="ideographic" fill="black" font-size="16" font-family="Helvetica, Arial, sans-serif" text-anchor="middle"><tspan x="93.60000000000001" dy="16">R1</tspan><tspan x="93.60000000000001" dy="16">10 Ω</tspan></text><text x="273.59999999999997" y="-411.79999999999995" dominant-baseline="ideographic" fill="black" font-size="16" font-family="Helvetica, Arial, sans-serif" text-anchor="middle"><tspan x="273.59999999999997" dy="16">R2</tspan><tspan x="273.59999999999997" dy="16">20 Ω</tspan></text><text x="147.60000000000002" y="-297.59999999999997" dominant-baseline="central" fill="black" font-size="16" font-family="Helvetica, Arial, sans-serif" text-anchor="end"><tspan x="147.60000000000002" dy="16">IX</tspan><tspan x="147.60000000000002" dy="16">2 A</tspan></text><text x="160.20000000000002" y="-117.60000000000001" dominant-baseline="central" fill="black" font-size="16" font-family="Helvetica, Arial, sans-serif" text-anchor="end"><tspan x="160.20000000000002" dy="16">R3</tspan><tspan x="160.20000000000002" dy="16">30 Ω</tspan></text><text x="273.59999999999997" y="-183.39999999999998" dominant-baseline="hanging" fill="black" font-size="16" font-family="Helvetica, Arial, sans-serif" text-anchor="middle"><tspan x="273.59999999999997" dy="16">R4</tspan><tspan x="273.59999999999997" dy="16">40 Ω</tspan></text><text x="385.20000000000005" y="-117.60000000000001" dominant-baseline="central" fill="black" font-size="16" font-family="Helvetica, Arial, sans-serif" text-anchor="start"><tspan x="385.20000000000005" dy="16">VX</tspan><tspan x="385.20000000000005" dy="16">50 V</tspan></text><text x="77.39999999999999" y="-192.79999999999998" dominant-baseline="ideographic" fill="#8a8a8a" font-size="20" font-family="Helvetica, Arial, sans-serif" text-anchor="middle"><tspan x="77.39999999999999" dy="20">I</tspan></text><text x="266.40000000000003" y="-309.8" dominant-baseline="ideographic" fill="#8a8a8a" font-size="20" font-family="Helvetica, Arial, sans-serif" text-anchor="middle"><tspan x="266.40000000000003" dy="20">II</tspan></text><text x="293.40000000000003" y="-75.80000000000001" dominant-baseline="ideographic" fill="#8a8a8a" font-size="20" font-family="Helvetica, Arial, sans-serif" text-anchor="middle"><tspan x="293.40000000000003" dy="20">III</tspan></text><circle cx="180" cy="-360" r="4.32" style="stroke:black;fill:black;stroke-width:1.6;stroke-dasharray:-;" /><circle cx="180" cy="-180" r="4.32" style="stroke:black;fill:black;stroke-width:1.6;stroke-dasharray:-;" /><circle cx="360" cy="-180" r="4.32" style="stroke:black;fill:black;stroke-width:1.6;stroke-dasharray:-;" /><circle cx="180" cy="-0" r="4.32" style="stroke:black;fill:black;stroke-width:1.6;stroke-dasharray:-;" /></svg>